<?xml version="1.0" encoding="UTF-8"?>
<svg id="Capa_2" data-name="Capa 2" xmlns="http://www.w3.org/2000/svg" viewBox="0 0 360.44 405.21">
  <defs>
    <style>
      .cls-1 {
        fill: #efefef;
        stroke-width: 0px;
      }
    </style>
  </defs>
  <g id="Layer_1" data-name="Layer 1">
    <g>
      <rect class="cls-1" x="95.53" y="315.42" width="175.59" height="30.39"/>
      <rect class="cls-1" x="128.8" y="374.82" width="109.05" height="30.39"/>
      <path class="cls-1" d="M71.79,315.42v30.4c-28.18,0-51.09-22.93-51.09-51.09v-56.52c0-11.41-9.29-20.69-20.7-20.69v-30.4c14.21,0,27.06,5.82,36.33,15.21,9.14,9.23,14.78,21.91,14.78,35.88v56.52c0,11.41,9.28,20.69,20.69,20.69Z"/>
      <path class="cls-1" d="M360.44,217.51c-11.41,0-20.7,9.28-20.7,20.69v56.52c0,28.16-22.91,51.09-51.09,51.09v-30.4c11.41,0,20.7-9.28,20.7-20.69v-56.52c0-13.97,5.64-26.65,14.78-35.88,9.26,9.37,22.12,15.19,36.31,15.19Z"/>
      <path class="cls-1" d="M102.12,58.78v30.34h-30.33v.08c-11.41,0-20.69,9.29-20.69,20.7v56.5c0,13.97-5.65,26.66-14.78,35.91-9.26-9.39-22.12-15.21-36.33-15.21,11.41,0,20.7-9.29,20.7-20.71v-56.5c0-28.18,22.91-51.1,51.09-51.1v-.03h30.33Z"/>
      <rect class="cls-1" x="102.07" y="37.86" width="20.92" height="20.92" transform="translate(64.2 160.85) rotate(-90)"/>
      <rect class="cls-1" x="87.4" y="23.19" width="14.67" height="14.67" transform="translate(64.2 125.26) rotate(-90)"/>
      <rect class="cls-1" x="108.32" y="0" width="14.67" height="14.67" transform="translate(108.32 122.99) rotate(-90)"/>
      <path class="cls-1" d="M360.44,187.12v30.4c-14.19,0-27.05-5.82-36.31-15.19-9.12-9.25-14.78-21.94-14.78-35.91v-56.5c0-11.41-9.29-20.7-20.7-20.7v-.08h-30.33v-30.34h30.33v.03c28.18,0,51.09,22.93,51.09,51.1v56.5c0,11.41,9.29,20.71,20.7,20.71Z"/>
      <g>
        <path class="cls-1" d="M115.8,202.31c0,13.14,3.76,25.4,10.28,35.77l-21.86,21.86c-11.83-16.18-18.82-36.11-18.82-57.63,0-35.09,18.55-65.93,46.38-83.21.37.46.76.92,1.17,1.36,7.46,8.37,16.79,14.68,27.08,18.47-25.79,9.5-44.23,34.33-44.23,63.38Z"/>
        <path class="cls-1" d="M240.96,281.43c-16.18,11.82-36.11,18.8-57.63,18.8s-41.45-6.98-57.63-18.8l21.86-21.87c10.37,6.51,22.64,10.28,35.77,10.28s25.38-3.76,35.76-10.28l21.87,21.87Z"/>
      </g>
      <path class="cls-1" d="M281.25,202.31c0,21.52-6.98,41.45-18.8,57.63l-21.87-21.87c6.51-10.37,10.28-22.64,10.28-35.76,0-37.23-30.29-67.53-67.52-67.53-17.54,0-33.31-7.68-44.15-19.84-1.87-2.11-3.6-4.35-5.15-6.71-6.21-9.33-9.8-20.52-9.8-32.54,0-32.59,26.51-59.1,59.1-59.1s59.09,26.51,59.09,59.1c0,12.03-3.61,23.22-9.8,32.55-.46-.26-.92-.5-1.39-.74-9.39-4.78-19.23-8.07-29.44-9.86,6.26-5.26,10.25-13.15,10.25-21.95,0-15.83-12.89-28.7-28.7-28.7s-28.7,12.87-28.7,28.7c0,8.8,3.99,16.69,10.25,21.95,4.99,4.21,11.43,6.75,18.46,6.75,15.86,0,30.86,3.79,44.13,10.54,31.88,16.14,53.78,49.24,53.78,87.37Z"/>
    </g>
  </g>
</svg>